# xmcd CD database file
#
# Track frame offsets:
#	151
#	13358
#	21775
#	28936
#	40580
#	54632
#	65412
#	81402
#	98122
#	110580
#	116811
#	130639
#	145194
#	161725
#	170076
#	181235
#	191119
#	197451
#	208764
#	226013
#	238823
#	248990
#	262818
#	280585
#	293367
#
# Disc length: 4051 seconds
#
# Revision: 1
# Processed by: cddbd v1.5.2PL0 Copyright (c) Steve Scherf et al.
# Submitted via: CDex 1.51
#
DISCID=650fd119
DTITLE=James Patterson - Pop Goes The Weasel Disc 9
DYEAR=1999
DGENRE=Audio Book
TTITLE0=1 Pop Goes The Weasel Disc 9 
TTITLE1=2 Pop Goes The Weasel Disc 9
TTITLE2=3 Pop Goes The Weasel Disc 9
TTITLE3=4 Pop Goes The Weasel Disc 9
TTITLE4=5 Pop Goes The Weasel Disc 9
TTITLE5=6 Pop Goes The Weasel Disc 9
TTITLE6=7 Pop Goes The Weasel Disc 9
TTITLE7=8 Pop Goes The Weasel Disc 9
TTITLE8=9 Pop Goes The Weasel Disc 9
TTITLE9=10 Pop Goes The Weasel Disc 9
TTITLE10=11 Pop Goes The Weasel Disc 9
TTITLE11=12 Pop Goes The Weasel Disc 9
TTITLE12=13 Pop Goes The Weasel Disc 9
TTITLE13=14 Pop Goes The Weasel Disc 9
TTITLE14=15 Pop Goes The Weasel Disc 9
TTITLE15=16 Pop Goes The Weasel Disc 9
TTITLE16=17 Pop Goes The Weasel Disc 9
TTITLE17=18 Pop Goes The Weasel Disc 9
TTITLE18=19 Pop Goes The Weasel Disc 9
TTITLE19=20 Pop Goes The Weasel Disc 9
TTITLE20=21 Pop Goes The Weasel Disc 9
TTITLE21=22 Pop Goes The Weasel Disc 9
TTITLE22=23 Pop Goes The Weasel Disc 9
TTITLE23=24 Pop Goes The Weasel Disc 9
TTITLE24=25 Pop Goes The Weasel Disc 9
EXTD=YEAR: 1999
EXTT0=
EXTT1=
EXTT2=
EXTT3=
EXTT4=
EXTT5=
EXTT6=
EXTT7=
EXTT8=
EXTT9=
EXTT10=
EXTT11=
EXTT12=
EXTT13=
EXTT14=
EXTT15=
EXTT16=
EXTT17=
EXTT18=
EXTT19=
EXTT20=
EXTT21=
EXTT22=
EXTT23=
EXTT24=
PLAYORDER=
